<?xml version="1.0" encoding="UTF-8"?>
<svg version="1.1" xmlns="http://www.w3.org/2000/svg" width="1024" height="1024">
<path d="M0 0 C2.86477513 3.42857477 5.20603564 6.87938938 7.3984375 10.76953125 C8.03531494 11.89311035 8.67219238 13.01668945 9.32836914 14.17431641 C9.66160187 14.76674133 9.99483459 15.35916626 10.33816528 15.96954346 C12.1187723 19.13454294 13.91401229 22.29123997 15.70703125 25.44921875 C16.25160225 26.40973145 16.25160225 26.40973145 16.80717468 27.38964844 C20.17789219 33.32942837 23.61070766 39.23198598 27.0625 45.125 C31.86816254 53.33444622 36.6337512 61.56569423 41.375 69.8125 C46.57645909 78.85435841 51.85376838 87.84831594 57.1875 96.8125 C62.35737598 105.50167358 67.44434058 114.22923104 72.43139648 123.02441406 C76.45019866 130.0897601 80.5905371 137.07922284 84.75 144.0625 C90.64821272 153.97017193 96.43044934 163.93681192 102.13265991 173.95846558 C107.29257661 183.02691143 112.51246627 192.05788044 117.78173828 201.06323242 C122.04906223 208.35954574 126.2816357 215.67528197 130.5 223 C135.30844723 231.34802448 140.13897095 239.68248303 145 248 C149.86102982 256.31751829 154.69135517 264.6520885 159.5 273 C164.27217228 281.2822774 169.05853218 289.55589523 173.875 297.8125 C174.43074707 298.76592285 174.98649414 299.7193457 175.55908203 300.70166016 C178.51020142 305.75797274 181.47369881 310.80669792 184.45407104 315.84580994 C186.0409458 318.52949459 187.62477615 321.21497088 189.20855713 323.90048218 C189.98276518 325.21103722 190.75859014 326.52063849 191.53607178 327.82925415 C192.61906143 329.65214359 193.69675916 331.47806541 194.7734375 333.3046875 C195.39653809 334.35640137 196.01963867 335.40811523 196.66162109 336.49169922 C198 339 198 339 198 341 C67.98 341 -62.04 341 -196 341 C-194.61691269 336.85073807 -193.54197742 333.88470122 -191.453125 330.2265625 C-190.94539551 329.33219482 -190.43766602 328.43782715 -189.91455078 327.51635742 C-189.09059814 326.0851355 -189.09059814 326.0851355 -188.25 324.625 C-187.67362793 323.61477783 -187.09725586 322.60455566 -186.50341797 321.5637207 C-181.25972579 312.39540177 -175.93278396 303.27546458 -170.59765625 294.16015625 C-166.89487032 287.82913023 -163.2250559 281.47936547 -159.5625 275.125 C-158.62990356 273.50718628 -158.62990356 273.50718628 -157.6784668 271.85668945 C-155.78518248 268.57139224 -153.89248083 265.28576011 -152 262 C-149.47990911 257.62457171 -146.95920153 253.24950025 -144.4375 248.875 C-143.81770264 247.79968018 -143.19790527 246.72436035 -142.55932617 245.61645508 C-138.35718303 238.33314307 -134.12237011 231.06950604 -129.875 223.8125 C-125.41090451 216.18312454 -121.0165838 208.51923536 -116.6875 200.8125 C-111.41142596 191.42433502 -105.99751982 182.12170448 -100.53811646 172.83956909 C-93.51053193 160.89115577 -86.57210472 148.89325803 -79.65771484 136.87890625 C-77.25604784 132.70799944 -74.8483998 128.54057571 -72.4375 124.375 C-72.00284424 123.62387939 -71.56818848 122.87275879 -71.12036133 122.09887695 C-68.68058866 117.88732733 -66.23106112 113.68162772 -63.7734375 109.48046875 C-56.79665504 97.55274293 -49.88865318 85.58807954 -43.04345703 73.58447266 C-36.63172465 62.34239163 -30.1690705 51.13000492 -23.69140625 39.92578125 C-22.11623813 37.20106781 -20.54234731 34.47562081 -18.96875 31.75 C-14.46010897 23.94511909 -9.93282615 16.15127312 -5.375 8.375 C-4.94856201 7.64531006 -4.52212402 6.91562012 -4.08276367 6.16381836 C-1.11707734 1.11707734 -1.11707734 1.11707734 0 0 Z " fill="#088BFB" transform="translate(512,198)"/>
<path d="M0 0 C2.95120239 -0.41383648 2.95120239 -0.41383648 6.81689453 -0.46842957 C7.52616939 -0.48228189 8.23544424 -0.49613422 8.96621227 -0.51040632 C11.35508881 -0.55298403 13.74365299 -0.57380632 16.1328125 -0.59448242 C17.8410145 -0.61981783 19.54920058 -0.64624663 21.25737 -0.6736908 C26.87974605 -0.75760845 32.50221187 -0.80842101 38.125 -0.85546875 C40.06074017 -0.87285949 41.99648033 -0.89025261 43.93222046 -0.90764809 C51.98729251 -0.9773192 60.0423507 -1.03778381 68.09764099 -1.07538891 C79.63844941 -1.12973061 91.17585473 -1.23790072 102.7153511 -1.42162818 C110.83012312 -1.54641968 118.9439842 -1.6096059 127.05968857 -1.62742692 C131.90622157 -1.63967627 136.74905311 -1.67860234 141.59454346 -1.78337669 C146.1597959 -1.88071344 150.71917696 -1.90136041 155.28525734 -1.86460304 C156.9551226 -1.8642166 158.62526222 -1.89096295 160.29416466 -1.94766235 C165.61456574 -2.1185541 170.00671924 -1.96925215 175 0 C179.11404169 3.90300034 181.61259531 8.92113052 184.0233326 13.98669088 C185.48849669 17.00699055 187.20164992 19.85173706 188.9140625 22.73828125 C190.15376024 24.92815072 191.39068425 27.11959247 192.625 29.3125 C194.00988217 31.75829963 195.39860878 34.20189527 196.7890625 36.64453125 C197.13825745 37.25801422 197.48745239 37.87149719 197.847229 38.50357056 C201.48751142 44.88190161 205.23827811 51.19255039 209 57.5 C214.46921788 66.67741189 219.84149647 75.9025031 225.125 85.1875 C231.76685051 96.85891001 238.49701769 108.47579633 245.28222656 120.06445312 C248.19360701 125.03978549 251.09636412 130.02014528 254 135 C257.48616149 140.97780303 260.97324226 146.95505996 264.46484375 152.9296875 C269.32876254 161.25552373 274.18895463 169.58321661 279.00390625 177.9375 C279.50590797 178.80847824 279.50590797 178.80847824 280.01805115 179.697052 C281.6308096 182.4961342 283.24196204 185.29612817 284.85131836 188.09716797 C288.13188104 193.79852852 291.46478627 199.45419381 294.93359375 205.04345703 C296 207 296 207 296 209 C158.72 209 21.44 209 -120 209 C-116.48077019 201.96154038 -113.04461486 195.11864337 -109.0625 188.375 C-108.10117913 186.73069282 -107.14026467 185.086148 -106.1796875 183.44140625 C-105.66889648 182.56887207 -105.15810547 181.69633789 -104.63183594 180.79736328 C-101.62827309 175.64852679 -98.66141079 170.47849859 -95.6875 165.3125 C-90.81614294 156.86058753 -85.92162542 148.42273354 -81 140 C-71.22415296 123.26032798 -61.48224732 106.50573353 -52.0625 89.5625 C-46.51329489 79.58621513 -40.74421166 69.75516706 -34.89526367 59.95214844 C-30.08576973 51.87634483 -25.41622044 43.73256288 -20.81689453 35.53564453 C-16.71476032 28.23484522 -12.53270353 20.9831619 -8.3125 13.75 C-7.41120361 12.20372925 -7.41120361 12.20372925 -6.49169922 10.6262207 C-2.2644043 3.39660645 -2.2644043 3.39660645 0 0 Z " fill="#078BFA" transform="translate(274,612)"/>
<path d="M0 0 C26.75552791 -0.07960767 53.51068424 -0.10795954 80.26632118 -0.07515812 C92.68926384 -0.06112534 105.11177883 -0.06391593 117.53466797 -0.10620117 C128.36150525 -0.14301119 139.18782104 -0.14836824 150.01468027 -0.11582941 C155.74855889 -0.09969873 161.48145922 -0.09940406 167.21525955 -0.13676643 C172.61164012 -0.17143341 178.00632633 -0.1640639 183.40265656 -0.12437057 C185.38358765 -0.11722376 187.36464295 -0.12547154 189.34543228 -0.15022469 C204.33850758 -0.32484192 204.33850758 -0.32484192 208.47158813 2.97079659 C210.04844124 5.286585 211.05604044 7.37295738 212 10 C212.59651367 11.00546875 213.19302734 12.0109375 213.80761719 13.046875 C214.5447998 14.38492188 214.5447998 14.38492188 215.296875 15.75 C215.85761719 16.7613501 216.41835938 17.7727002 216.99609375 18.81469727 C217.86427734 20.39142212 217.86427734 20.39142212 218.75 22 C223.92391076 31.31670016 229.20847011 40.54809028 234.64697266 49.71191406 C237.34593817 54.27609753 240.01572409 58.85736538 242.6875 63.4375 C243.57308594 64.95549194 243.57308594 64.95549194 244.4765625 66.50415039 C249.47582604 75.08285975 254.43733953 83.68309505 259.39331055 92.28686523 C264.14266356 100.52714318 268.92847846 108.74556776 273.72827148 116.95654297 C278.03485269 124.32973936 282.30355288 131.72420665 286.5625 139.125 C291.16041126 147.11233661 295.79721703 155.07396129 300.5 163 C305.37615578 171.22533484 310.20705907 179.47596903 315 187.75 C315.62326172 188.82121094 316.24652344 189.89242187 316.88867188 190.99609375 C317.48228516 192.02347656 318.07589844 193.05085937 318.6875 194.109375 C319.20699219 195.00624023 319.72648437 195.90310547 320.26171875 196.82714844 C321.77649802 199.5920461 323.203497 202.37685841 324.60864258 205.19830322 C325.05701981 206.09779819 325.50539703 206.99729317 325.96736145 207.92404556 C326.47851753 208.95164301 326.47851753 208.95164301 327 210 C300.54928454 210.63192309 274.0997061 211.10740842 247.64295197 211.39892864 C235.35688865 211.53791663 223.07552529 211.72720816 210.79248047 212.03686523 C200.08067861 212.30678133 189.37227963 212.48034444 178.65717173 212.54038936 C172.98610759 212.57547893 167.32477283 212.6572735 161.65684509 212.85471153 C126.19722365 214.04252988 126.19722365 214.04252988 118.59744263 207.41742325 C112.9660426 201.46439909 110.00668232 194.12053155 107.32672119 186.47132301 C105.18103185 180.85719636 102.02631683 175.90709199 98.875 170.8125 C97.71988078 168.84038073 96.56947645 166.86548506 95.42578125 164.88671875 C93.13552582 160.94946469 90.84132043 157.01456475 88.54296875 153.08203125 C82.47528684 142.6981896 76.43702429 132.29838486 70.4375 121.875 C65.29427539 112.94210052 60.0947183 104.04540376 54.83911133 95.17822266 C45.31387663 79.10284563 35.95071059 62.93356501 26.62353516 46.74267578 C21.18782221 37.31199006 15.71003251 27.90622572 10.21875 18.5078125 C9.70054687 17.6199707 9.18234375 16.73212891 8.6484375 15.81738281 C7.44912995 13.76761842 6.24541217 11.72043249 5.0390625 9.67480469 C4.39710938 8.58329102 3.75515625 7.49177734 3.09375 6.3671875 C2.50271484 5.3654248 1.91167969 4.36366211 1.30273438 3.33154297 C0 1 0 1 0 0 Z " fill="#078AFA" transform="translate(545,611)"/>
<path d="M0 0 C0.66 0.33 1.32 0.66 2 1 C1.34 2.32 0.68 3.64 0 5 C129.03 5.33 258.06 5.66 391 6 C391 6.66 391 7.32 391 8 C260.98 8 130.96 8 -3 8 C-1 2 -1 2 0 0 Z " fill="#208DFA" transform="translate(319,531)"/>
<path d="M0 0 C0.98260331 0.16173675 1.96520662 0.32347349 2.97758579 0.49011135 C7.10170684 1.07569466 11.19880705 1.15279351 15.35862732 1.15821838 C16.58041383 1.16562535 16.58041383 1.16562535 17.8268829 1.17318195 C20.54140632 1.18847368 23.25590624 1.19689487 25.97045898 1.20532227 C27.92220769 1.21490734 29.87395434 1.22491779 31.82569885 1.23532104 C37.11435873 1.26230794 42.40302747 1.2833511 47.69171786 1.30332303 C53.22239715 1.32522099 58.75304929 1.35259102 64.28370667 1.37937927 C74.75241861 1.42925468 85.22114567 1.4742126 95.68988711 1.51740164 C107.61003405 1.56681807 119.53015376 1.62171985 131.45027435 1.67708123 C155.96682414 1.79082218 180.48340007 1.89767835 205 2 C205 2.33 205 2.66 205 3 C139 3 73 3 5 3 C4.67 3.66 4.34 4.32 4 5 C3.34 5 2.68 5 2 5 C1.34 3.35 0.68 1.7 0 0 Z " fill="#1092FA" transform="translate(545,611)"/>
<path d="M0 0 C2.31 0.33 4.62 0.66 7 1 C6.01 1.33 5.02 1.66 4 2 C3.67 2.99 3.34 3.98 3 5 C0 1.125 0 1.125 0 0 Z " fill="#2587F9" transform="translate(545,611)"/>
<path d="M0 0 C0.33 0.66 0.66 1.32 1 2 C-2.41176471 8.70588235 -2.41176471 8.70588235 -5 10 C-3.84414715 6.08788267 -2.64465038 3.1254959 0 0 Z " fill="#0778F9" transform="translate(438,326)"/>
</svg>
